<?xml version="1.0" ?><!DOCTYPE svg  PUBLIC '-//W3C//DTD SVG 1.1//EN'  'http://www.w3.org/Graphics/SVG/1.1/DTD/svg11.dtd'><svg height="100%" style="fill:red;fill-rule:evenodd;clip-rule:evenodd;stroke-linejoin:round;stroke-miterlimit:2;" version="1.1" viewBox="0 0 32 32" width="100%" xml:space="preserve" xmlns="http://www.w3.org/2000/svg" xmlnsSerif="http://www.serif.com/" xmlnsXlink="http://www.w3.org/1999/xlink"><path d="M2.293,3.707l25.979,25.979c0.39,0.39 1.024,0.39 1.414,-0c0.39,-0.39 0.39,-1.024 -0,-1.414l-25.979,-25.979c-0.39,-0.39 -1.024,-0.39 -1.414,-0c-0.39,0.39 -0.39,1.024 -0,1.414Z"/><path d="M2.293,3.707l25.979,25.979c0.39,0.39 1.024,0.39 1.414,-0c0.39,-0.39 0.39,-1.024 -0,-1.414l-25.979,-25.979c-0.39,-0.39 -1.024,-0.39 -1.414,-0c-0.39,0.39 -0.39,1.024 -0,1.414Z"/><path d="M14.958,25.936l0,2.064l-3.998,0c-0.552,-0 -1,0.448 -1,1c-0,0.552 0.448,1 1,1l10,0c0.552,-0 1,-0.448 1,-1c-0,-0.552 -0.448,-1 -1,-1l-4.002,0l0,-2.056c1.31,-0.125 2.546,-0.503 3.659,-1.085l-1.501,-1.501c-0.959,0.407 -2.013,0.632 -3.119,0.632c-4.415,-0 -8,-3.585 -8,-8c-0,-0.552 -0.448,-1 -1,-1c-0.552,-0 -1,0.448 -1,1c-0,5.168 3.93,9.427 8.961,9.946Zm8.403,-6.818l1.501,1.501c0.725,-1.384 1.135,-2.959 1.135,-4.629c-0,-0.552 -0.448,-1 -1,-1c-0.552,-0 -1,0.448 -1,1c-0,1.11 -0.227,2.167 -0.636,3.128Z"/><path d="M10.989,15.232l0,1.777c0,2.757 2.235,4.991 4.991,4.991l0.019,-0c0.531,-0 1.042,-0.083 1.522,-0.236l-6.532,-6.532Zm0.006,-8.48l9.994,9.995l0,-9.757c0,-2.756 -2.234,-4.99 -4.99,-4.99l-0.019,-0c-2.676,0 -4.861,2.107 -4.985,4.752Z"/></svg>