<?xml version="1.0" ?><svg viewBox="0 0 30 30" xmlns="http://www.w3.org/2000/svg"><title/><g data-name="Layer 2" id="Layer_2"><g id="Interface-Solid"><g id="interface-solid-multimedia-rec-button-1"><path d="M15,2.5A12.5,12.5,0,1,0,27.5,15,12.51408,12.51408,0,0,0,15,2.5ZM15,21a6.00657,6.00657,0,0,1-6-6,5.93625,5.93625,0,0,1,.52344-2.45312A6.00038,6.00038,0,1,1,15,21Z" fill="none"/><path d="M15,0A15,15,0,1,0,30,15,15.01641,15.01641,0,0,0,15,0Zm0,27.5A12.5,12.5,0,1,1,27.5,15,12.51408,12.51408,0,0,1,15,27.5Z"/><path d="M15,9a5.99412,5.99412,0,0,0-5.47656,3.54688A5.93625,5.93625,0,0,0,9,15a6,6,0,1,0,6-6Z"/></g></g></g></svg>